<svg xmlns="http://www.w3.org/2000/svg" version="1.1" xmlnsXlink="http://www.w3.org/1999/xlink" xmlns:svgjs="http://svgjs.com/svgjs" width="1440" height="800" preserveAspectRatio="none" viewBox="0 0 1440 800"><g mask="url(&quot;#SvgjsMask1040&quot;)" fill="none"><rect width="1440" height="800" x="0" y="0" fill="rgba(232, 97, 65, 1)"></rect><path d="M0,556.179C107.977,558.085,226.736,550.353,307.931,479.149C386.876,409.918,387.177,291.12,417.038,190.455C442.529,104.524,460.794,21.553,470.117,-67.593C482.465,-185.66,554.177,-323.276,480.501,-416.357C407.606,-508.451,258.861,-474.49,141.684,-482.53C47.538,-488.989,-40.492,-464.906,-134.646,-458.563C-261.044,-450.048,-407.907,-518.444,-506.479,-438.867C-602.943,-360.992,-606.068,-209.357,-596.443,-85.756C-587.837,24.762,-508.234,110.466,-456.086,208.287C-407.618,299.204,-382.941,405.916,-301.023,468.401C-216.201,533.101,-106.664,554.296,0,556.179" fill="#cf3c19"></path><path d="M1440 1317.107C1535.205 1314.9740000000002 1599.079 1223.25 1682.567 1177.442 1774.106 1127.216 1895.295 1121.004 1954.348 1034.895 2015.47 945.768 2021.846 825.022 1996.261 720.022 1971.6950000000002 619.205 1899.5439999999999 536.394 1817.423 472.961 1744.644 416.744 1646.401 421.046 1561.981 384.571 1461.484 341.15 1382.673 217.93200000000002 1275.18 238.67499999999995 1169.517 259.06500000000005 1125.159 387.022 1070.108 479.487 1023.15 558.359 995.011 643.299 980.3330000000001 733.91 965.419 825.981 945.374 923.352 984.4929999999999 1008.023 1023.5550000000001 1092.571 1113.277 1136.1770000000001 1190.345 1188.471 1269.412 1242.122 1344.473 1319.2469999999998 1440 1317.107" fill="#ef927b"></path></g><defs><mask id="SvgjsMask1040"><rect width="1440" height="800" fill="#ffffff"></rect></mask></defs></svg>